<?xml version="1.0" standalone="no"?>
<!DOCTYPE svg PUBLIC "-//W3C//DTD SVG 20010904//EN"
 "http://www.w3.org/TR/2001/REC-SVG-20010904/DTD/svg10.dtd">
<svg version="1.0" xmlns="http://www.w3.org/2000/svg"
 width="217.000000pt" height="53.000000pt" viewBox="0 0 217.000000 53.000000"
 preserveAspectRatio="xMidYMid meet">

<g transform="translate(0.000000,53.000000) scale(0.100000,-0.100000)"
fill="#000000" stroke="none">
<path d="M10 330 c0 -171 2 -200 15 -200 8 0 15 7 15 15 0 19 5 19 35 -1 14
-9 40 -16 59 -17 81 -2 121 54 114 161 -4 58 -8 68 -36 93 -37 34 -102 40
-140 13 l-22 -15 0 75 c0 69 -2 76 -20 76 -19 0 -20 -7 -20 -200z m148 44 c70
-19 67 -192 -4 -210 -62 -16 -104 26 -104 103 0 88 38 125 108 107z"/>
<path d="M957 524 c-4 -4 -7 -94 -7 -201 l0 -193 25 0 c24 0 25 3 25 54 0 87
19 90 77 12 34 -46 55 -65 71 -66 12 0 22 2 22 5 0 3 -25 39 -57 81 l-56 75
51 52 c57 57 61 67 33 67 -10 0 -46 -29 -80 -65 l-60 -65 -3 122 c-3 101 -6
123 -18 126 -9 1 -19 0 -23 -4z"/>
<path d="M1820 330 c0 -193 1 -200 20 -200 19 0 20 7 20 200 0 193 -1 200 -20
200 -19 0 -20 -7 -20 -200z"/>
<path d="M1684 496 c-8 -21 3 -36 27 -36 15 0 20 6 17 22 -4 27 -35 37 -44 14z"/>
<path d="M365 388 c-53 -41 -68 -115 -39 -188 26 -65 100 -91 173 -61 80 34
93 184 20 245 -40 34 -113 36 -154 4z m108 -19 c33 -15 47 -49 47 -110 0 -61
-31 -99 -80 -99 -19 0 -40 9 -55 25 -21 20 -25 34 -25 80 0 64 12 92 43 105
30 12 42 12 70 -1z"/>
<path d="M678 390 c-37 -29 -51 -71 -46 -140 3 -45 10 -66 28 -85 51 -55 150
-51 193 7 47 63 28 192 -34 223 -41 22 -111 19 -141 -5z m119 -25 c48 -33 54
-136 10 -182 -20 -23 -59 -29 -92 -17 -25 10 -45 58 -45 109 0 79 71 129 127
90z"/>
<path d="M1370 205 c0 -198 1 -205 20 -205 18 0 20 7 20 79 l0 78 38 -18 c47
-24 91 -17 127 18 29 30 39 75 33 145 -4 42 -11 57 -37 80 -36 33 -102 38
-139 12 -20 -14 -23 -14 -28 0 -3 9 -12 16 -20 16 -12 0 -14 -36 -14 -205z
m167 151 c25 -22 28 -31 28 -84 0 -50 -4 -65 -24 -86 -29 -31 -69 -34 -101 -8
-27 22 -39 109 -21 155 19 49 75 60 118 23z"/>
<path d="M1690 270 c0 -133 1 -140 20 -140 19 0 20 7 20 140 0 133 -1 140 -20
140 -19 0 -20 -7 -20 -140z"/>
<path d="M1976 378 c-55 -55 -57 -159 -4 -215 26 -28 87 -46 125 -37 57 12 63
16 63 36 0 15 -4 18 -17 13 -66 -26 -132 -12 -152 31 -23 51 -19 54 85 54 l97
0 -6 47 c-7 65 -48 103 -113 103 -39 0 -51 -5 -78 -32z m124 -18 c11 -11 20
-29 20 -40 0 -18 -7 -20 -70 -20 -79 0 -89 12 -45 55 29 30 68 32 95 5z"/>
<path d="M1225 169 c-9 -26 16 -55 40 -45 25 9 16 60 -12 64 -15 2 -23 -3 -28
-19z"/>
</g>
</svg>
